<svg xmlns="http://www.w3.org/2000/svg" viewBox="0 0 980 420" role="img" aria-labelledby="title desc">
  <title id="title">ColourPix logo</title>
  <desc id="desc">ColourPix wordmark with ribbon icon and service tagline.</desc>
  <defs>
    <linearGradient id="cpBlue" x1="0" y1="0" x2="1" y2="1">
      <stop offset="0" stop-color="#4CB6E9"/>
      <stop offset="1" stop-color="#2C4A86"/>
    </linearGradient>
    <linearGradient id="cpOrange" x1="0" y1="0" x2="1" y2="1">
      <stop offset="0" stop-color="#F9B037"/>
      <stop offset="1" stop-color="#E95527"/>
    </linearGradient>
  </defs>

  <g transform="translate(300 24)">
    <path d="M66 24c-36 0-62 26-62 56 0 32 28 64 72 78 46 15 86 34 112 66-24-4-54-14-86-28-56-25-104-64-104-122 0-54 40-96 96-96 64 0 118 44 180 66-58-8-114-20-148-20Z" fill="url(#cpBlue)"/>
    <path d="M206 0c56 0 98 42 98 96 0 58-48 97-104 122-32 14-62 24-86 28 26-32 66-51 112-66 44-14 72-46 72-78 0-30-26-56-62-56-34 0-90 12-148 20 62-22 116-66 180-66Z" fill="url(#cpOrange)"/>
  </g>

  <text x="486" y="280" text-anchor="middle" font-family="Segoe UI, Tahoma, Arial, sans-serif" font-size="186" font-weight="700" fill="#50565A">ColourPix</text>
  <text x="486" y="376" text-anchor="middle" font-family="Segoe UI, Tahoma, Arial, sans-serif" font-size="62" font-weight="500" letter-spacing="1.5" fill="#50565A">GRAPHIC | WEB | SIGNAGE | PRINTING</text>
</svg>
