<svg xmlns="http://www.w3.org/2000/svg" viewBox="0 0 512 512" role="img" aria-labelledby="title desc">
  <title id="title">PSG flower app icon</title>
  <desc id="desc">Cyan PSG flower mark on transparent background.</desc>
  <g fill="#17A9E7">
    <path d="M256 48c37 41 58 90 58 138 0 59-25 105-58 139-33-34-58-80-58-139 0-48 21-97 58-138Z"/>
    <path d="M224 234c-37-43-82-58-125-48-41 8-74 36-90 74-16 42-11 87 17 123 29 38 72 57 122 57-37-28-58-62-64-100-7-36 1-67 23-89 20-23 48-31 82-24 12 3 24 5 35 7Z"/>
    <path d="M288 234c37-43 82-58 125-48 41 8 74 36 90 74 16 42 11 87-17 123-29 38-72 57-122 57 37-28 58-62 64-100 7-36-1-67-23-89-20-23-48-31-82-24-12 3-24 5-35 7Z"/>
    <path d="M256 244c24 16 41 41 50 71 10 33 2 72-20 105-8 17-19 32-30 45-11-13-22-28-30-45-22-33-30-72-20-105 9-30 26-55 50-71Z"/>
    <circle cx="256" cy="252" r="24"/>
    <path d="M256 386c11 0 22 8 22 20 0 8-3 14-7 21-5 7-9 12-15 20-6-8-10-13-15-20-4-7-7-13-7-21 0-12 11-20 22-20Z"/>
  </g>
</svg>