<svg xmlns="http://www.w3.org/2000/svg" viewBox="0 0 128 128" role="img" aria-labelledby="title desc">
  <title id="title">PSG flower mark</title>
  <desc id="desc">Cyan fleur-inspired flower mark with transparent background.</desc>
  <g fill="#17A9E7">
    <path d="M64 16c8 11 11 22 9 33-2 9-9 16-17 20 0-16 4-30 8-53Z"/>
    <path d="M64 16c-8 11-11 22-9 33 2 9 9 16 17 20 0-16-4-30-8-53Z"/>
    <path d="M56 69c4-6 8-8 8-8s4 2 8 8c4 7 5 14 3 21-2 5-6 10-11 15-5-5-9-10-11-15-2-7-1-14 3-21Z"/>
    <path d="M55 71c-8-1-14-4-18-10-4-6-4-12-1-18 5-10 17-14 32-13-8 7-11 14-12 22-1 8 1 14 6 19-3 0-5 0-7 0Z"/>
    <path d="M73 71c8-1 14-4 18-10 4-6 4-12 1-18-5-10-17-14-32-13 8 7 11 14 12 22 1 8-1 14-6 19 3 0 5 0 7 0Z"/>
    <circle cx="64" cy="64" r="5"/>
  </g>
</svg>
