<svg xmlns="http://www.w3.org/2000/svg" viewBox="0 0 128 128">
  <g fill="#17A9E7">
    <path d="M64 12c9 10 14 22 14 33 0 14-6 25-14 33-8-8-14-19-14-33 0-11 5-23 14-33Z"/>
    <path d="M56 57c-9-10-20-14-30-12-10 2-18 9-22 18-4 10-3 21 4 30 7 10 18 15 30 15-9-7-14-15-16-24-2-8 0-16 5-21 4-5 11-8 19-6 4 1 7 1 10 0Z"/>
    <path d="M72 57c9-10 20-14 30-12 10 2 18 9 22 18 4 10 3 21-4 30-7 10-18 15-30 15 9-7 14-15 16-24 2-8 0-16-5-21-4-5-11-8-19-6-4 1-7 1-10 0Z"/>
    <path d="M64 60c6 4 10 10 12 17 2 8 0 18-5 26-2 4-4 8-7 11-3-3-5-7-7-11-5-8-7-18-5-26 2-7 6-13 12-17Z"/>
    <circle cx="64" cy="61" r="6"/>
    <path d="M64 96c3 0 6 2 6 5 0 2-1 4-2 5-1 2-2 3-4 5-2-2-3-3-4-5-1-1-2-3-2-5 0-3 3-5 6-5Z"/>
  </g>
</svg>